<svg width="31" height="31" viewBox="0 0 31 31" fill="none" xmlns="http://www.w3.org/2000/svg">
<path d="M4.72093 14.25H21L19.1395 24H6.11628L4.25581 11H1" stroke="#2D2D2D" stroke-width="2" stroke-linecap="round" stroke-linejoin="round"/>
<circle cx="7.5" cy="28.5" r="1.5" stroke="#2D2D2D" stroke-width="2" stroke-linecap="round" stroke-linejoin="round"/>
<circle cx="18.5" cy="28.5" r="1.5" stroke="#2D2D2D" stroke-width="2" stroke-linecap="round" stroke-linejoin="round"/>
<g clip-path="url(#clip0_1_324)">
<circle cx="21" cy="10" r="10" fill="#68D585"/>
<path d="M24.7305 11.4707V13H18.959C19.0215 12.4219 19.209 11.875 19.5215 11.3594C19.834 10.8398 20.4512 10.1523 21.373 9.29688C22.1152 8.60547 22.5703 8.13672 22.7383 7.89062C22.9648 7.55078 23.0781 7.21484 23.0781 6.88281C23.0781 6.51562 22.9785 6.23438 22.7793 6.03906C22.584 5.83984 22.3125 5.74023 21.9648 5.74023C21.6211 5.74023 21.3477 5.84375 21.1445 6.05078C20.9414 6.25781 20.8242 6.60156 20.793 7.08203L19.1523 6.91797C19.25 6.01172 19.5566 5.36133 20.0723 4.9668C20.5879 4.57227 21.2324 4.375 22.0059 4.375C22.8535 4.375 23.5195 4.60352 24.0039 5.06055C24.4883 5.51758 24.7305 6.08594 24.7305 6.76562C24.7305 7.15234 24.6602 7.52148 24.5195 7.87305C24.3828 8.2207 24.1641 8.58594 23.8633 8.96875C23.6641 9.22266 23.3047 9.58789 22.7852 10.0645C22.2656 10.541 21.9355 10.8574 21.7949 11.0137C21.6582 11.1699 21.5469 11.3223 21.4609 11.4707H24.7305Z" fill="white"/>
</g>
<defs>
<clipPath id="clip0_1_324">
<rect width="20" height="20" fill="white" transform="translate(11)"/>
</clipPath>
</defs>
</svg>
