<svg width="94" height="29" viewBox="0 0 94 29" fill="none" xmlns="http://www.w3.org/2000/svg">
<g clip-path="url(#clip0_1_210)">
<path d="M4.05908 18.1987V14.7207C2.97445 14.4108 2.17757 13.9432 1.66846 13.3179C1.16488 12.687 0.913086 11.9233 0.913086 11.0269C0.913086 10.1193 1.19808 9.3584 1.76807 8.74414C2.34359 8.12435 3.10726 7.76742 4.05908 7.67334V6.85156H5.2627V7.67334C6.14258 7.77848 6.84261 8.08008 7.36279 8.57812C7.88298 9.07064 8.21501 9.73193 8.35889 10.562L6.25879 10.8359C6.13151 10.1829 5.79948 9.74023 5.2627 9.50781V12.7534C6.59082 13.1131 7.49561 13.5807 7.97705 14.1562C8.4585 14.7262 8.69922 15.4595 8.69922 16.356C8.69922 17.3576 8.39486 18.2015 7.78613 18.8877C7.18294 19.5739 6.3418 19.9945 5.2627 20.1494V21.7017H4.05908V20.1909C3.10173 20.0747 2.32422 19.7178 1.72656 19.1201C1.12891 18.5225 0.74707 17.6785 0.581055 16.5884L2.74756 16.356C2.8361 16.7987 3.00212 17.1805 3.24561 17.5015C3.4891 17.8224 3.76025 18.0549 4.05908 18.1987ZM4.05908 9.48291C3.73258 9.59359 3.47249 9.78174 3.27881 10.0474C3.08512 10.313 2.98828 10.6063 2.98828 10.9272C2.98828 11.2205 3.07682 11.4945 3.25391 11.749C3.43099 11.998 3.69938 12.2 4.05908 12.355V9.48291ZM5.2627 18.3149C5.67773 18.2375 6.0153 18.0465 6.27539 17.7422C6.53548 17.4323 6.66553 17.0698 6.66553 16.6548C6.66553 16.284 6.55485 15.9658 6.3335 15.7002C6.11768 15.429 5.76074 15.2215 5.2627 15.0776V18.3149ZM11.9855 13.4341C11.3824 13.1795 10.9424 12.8309 10.6657 12.3882C10.3946 11.9399 10.259 11.4502 10.259 10.9189C10.259 10.0114 10.5744 9.26156 11.2053 8.66943C11.8417 8.07731 12.7437 7.78125 13.9113 7.78125C15.0679 7.78125 15.9644 8.07731 16.6008 8.66943C17.2427 9.26156 17.5637 10.0114 17.5637 10.9189C17.5637 11.4834 17.417 11.987 17.1237 12.4297C16.8304 12.8669 16.4182 13.2017 15.8869 13.4341C16.562 13.7052 17.0739 14.1009 17.4226 14.6211C17.7767 15.1413 17.9538 15.7417 17.9538 16.4224C17.9538 17.5457 17.5941 18.4588 16.8747 19.1616C16.1608 19.8644 15.209 20.2158 14.0192 20.2158C12.9125 20.2158 11.9911 19.9253 11.2551 19.3442C10.3863 18.658 9.95186 17.7173 9.95186 16.522C9.95186 15.8634 10.1151 15.2603 10.4416 14.7124C10.7681 14.159 11.2827 13.7329 11.9855 13.4341ZM12.467 11.085C12.467 11.5498 12.597 11.9123 12.8571 12.1724C13.1228 12.4325 13.4742 12.5625 13.9113 12.5625C14.354 12.5625 14.7082 12.4325 14.9738 12.1724C15.2395 11.9067 15.3723 11.5415 15.3723 11.0767C15.3723 10.6395 15.2395 10.2909 14.9738 10.0308C14.7137 9.76514 14.3679 9.63232 13.9362 9.63232C13.488 9.63232 13.1311 9.76514 12.8654 10.0308C12.5998 10.2964 12.467 10.6478 12.467 11.085ZM12.2512 16.2979C12.2512 16.9398 12.4144 17.4406 12.7409 17.8003C13.0729 18.16 13.4852 18.3398 13.9777 18.3398C14.4592 18.3398 14.8576 18.1683 15.173 17.8252C15.4885 17.4766 15.6462 16.9757 15.6462 16.3228C15.6462 15.7528 15.4857 15.2962 15.1647 14.9531C14.8438 14.6045 14.437 14.4302 13.9445 14.4302C13.3745 14.4302 12.9484 14.6266 12.6662 15.0195C12.3895 15.4124 12.2512 15.8385 12.2512 16.2979ZM19.2978 17.186L21.5556 16.937C21.6109 17.3963 21.7548 17.7367 21.9872 17.958C22.2196 18.1794 22.5268 18.29 22.9086 18.29C23.39 18.29 23.7995 18.0687 24.1371 17.626C24.4747 17.1833 24.6905 16.2646 24.7846 14.8701C24.198 15.5508 23.4647 15.8911 22.5849 15.8911C21.6275 15.8911 20.8002 15.5231 20.1029 14.7871C19.4112 14.0456 19.0653 13.0827 19.0653 11.8984C19.0653 10.6644 19.4306 9.67106 20.161 8.91846C20.897 8.16032 21.8323 7.78125 22.9667 7.78125C24.2007 7.78125 25.2134 8.25993 26.0048 9.21729C26.7961 10.1691 27.1918 11.738 27.1918 13.9238C27.1918 16.1484 26.7795 17.7533 25.955 18.7383C25.1304 19.7233 24.0569 20.2158 22.7343 20.2158C21.7825 20.2158 21.0132 19.964 20.4267 19.4604C19.8401 18.9513 19.4638 18.1932 19.2978 17.186ZM24.5771 12.0894C24.5771 11.3368 24.4027 10.7529 24.0541 10.3379C23.711 9.92285 23.3126 9.71533 22.8588 9.71533C22.4271 9.71533 22.0674 9.88688 21.7797 10.23C21.4975 10.5675 21.3563 11.1237 21.3563 11.8984C21.3563 12.6842 21.5113 13.2625 21.8212 13.6333C22.1311 13.9985 22.5185 14.1812 22.9833 14.1812C23.4315 14.1812 23.8078 14.0041 24.1122 13.6499C24.4221 13.2957 24.5771 12.7756 24.5771 12.0894ZM28.5606 17.186L30.8185 16.937C30.8738 17.3963 31.0177 17.7367 31.2501 17.958C31.4825 18.1794 31.7896 18.29 32.1715 18.29C32.6529 18.29 33.0624 18.0687 33.4 17.626C33.7376 17.1833 33.9534 16.2646 34.0475 14.8701C33.4609 15.5508 32.7276 15.8911 31.8478 15.8911C30.8904 15.8911 30.0631 15.5231 29.3658 14.7871C28.6741 14.0456 28.3282 13.0827 28.3282 11.8984C28.3282 10.6644 28.6935 9.67106 29.4239 8.91846C30.1599 8.16032 31.0951 7.78125 32.2296 7.78125C33.4636 7.78125 34.4763 8.25993 35.2677 9.21729C36.059 10.1691 36.4547 11.738 36.4547 13.9238C36.4547 16.1484 36.0424 17.7533 35.2179 18.7383C34.3933 19.7233 33.3198 20.2158 31.9972 20.2158C31.0453 20.2158 30.2761 19.964 29.6896 19.4604C29.103 18.9513 28.7267 18.1932 28.5606 17.186ZM33.8399 12.0894C33.8399 11.3368 33.6656 10.7529 33.317 10.3379C32.9739 9.92285 32.5755 9.71533 32.1217 9.71533C31.69 9.71533 31.3303 9.88688 31.0426 10.23C30.7604 10.5675 30.6192 11.1237 30.6192 11.8984C30.6192 12.6842 30.7742 13.2625 31.0841 13.6333C31.394 13.9985 31.7813 14.1812 32.2462 14.1812C32.6944 14.1812 33.0707 14.0041 33.3751 13.6499C33.685 13.2957 33.8399 12.7756 33.8399 12.0894Z" fill="#68D585"/>
<g opacity="0.7">
<path d="M53.7354 20.5454V19.2271C53.0762 19.144 52.5391 18.9976 52.124 18.7876C51.7139 18.5728 51.3574 18.2285 51.0547 17.7549C50.7568 17.2812 50.5835 16.7026 50.5347 16.019L51.8604 15.77C51.9629 16.478 52.1436 16.998 52.4023 17.3301C52.7734 17.7988 53.2178 18.0601 53.7354 18.1138V13.917C53.1934 13.8145 52.6392 13.6045 52.0728 13.2871C51.6528 13.0527 51.3281 12.728 51.0986 12.313C50.874 11.8979 50.7617 11.4268 50.7617 10.8994C50.7617 9.96191 51.0938 9.20264 51.7578 8.62158C52.2021 8.23096 52.8613 7.9917 53.7354 7.90381V7.27393H54.5117V7.90381C55.2783 7.97705 55.8862 8.20166 56.3354 8.57764C56.9116 9.05615 57.2583 9.71289 57.3755 10.5479L56.0132 10.7529C55.9351 10.2354 55.7715 9.83984 55.5225 9.56641C55.2783 9.28809 54.9414 9.10498 54.5117 9.01709V12.8184C55.1758 12.9844 55.6152 13.1138 55.8301 13.2065C56.2402 13.3872 56.5747 13.6069 56.8335 13.8657C57.0923 14.1245 57.29 14.4321 57.4268 14.7886C57.5684 15.145 57.6392 15.5308 57.6392 15.9458C57.6392 16.8589 57.3486 17.6206 56.7676 18.231C56.1865 18.8413 55.4346 19.1685 54.5117 19.2124V20.5454H53.7354ZM53.7354 9.00244C53.2227 9.08057 52.8174 9.28564 52.5195 9.61768C52.2266 9.94971 52.0801 10.3428 52.0801 10.7969C52.0801 11.2461 52.2046 11.6221 52.4536 11.9248C52.7075 12.2275 53.1348 12.4692 53.7354 12.6499V9.00244ZM54.5117 18.1138C55.0244 18.0503 55.4468 17.8281 55.7788 17.4473C56.1157 17.0664 56.2842 16.5952 56.2842 16.0337C56.2842 15.5552 56.1646 15.1719 55.9253 14.8838C55.6909 14.5908 55.2197 14.3296 54.5117 14.1001V18.1138ZM63.838 19H62.5196V10.5991C62.2022 10.9019 61.7848 11.2046 61.2672 11.5073C60.7545 11.8101 60.2931 12.0371 59.8829 12.1885V10.9141C60.6202 10.5674 61.2647 10.1475 61.8165 9.6543C62.3683 9.16113 62.7589 8.68262 62.9884 8.21875H63.838V19ZM67.8322 19V17.4985H69.3337V19C69.3337 19.5518 69.236 19.9961 69.0407 20.333C68.8454 20.6748 68.5354 20.9385 68.1105 21.124L67.7443 20.5601C68.0227 20.438 68.2277 20.2573 68.3596 20.0181C68.4914 19.7837 68.5646 19.4443 68.5793 19H67.8322ZM71.2039 16.1655L72.5223 15.9897C72.6736 16.7368 72.93 17.2764 73.2913 17.6084C73.6575 17.9355 74.1019 18.0991 74.6243 18.0991C75.2444 18.0991 75.7669 17.8843 76.1917 17.4546C76.6214 17.0249 76.8362 16.4927 76.8362 15.8579C76.8362 15.2524 76.6385 14.7544 76.243 14.3638C75.8475 13.9683 75.3445 13.7705 74.7342 13.7705C74.4852 13.7705 74.1751 13.8193 73.804 13.917L73.9505 12.7598C74.0384 12.7695 74.1092 12.7744 74.1629 12.7744C74.7244 12.7744 75.2298 12.6279 75.679 12.335C76.1282 12.042 76.3528 11.5903 76.3528 10.98C76.3528 10.4966 76.1893 10.0962 75.8621 9.77881C75.535 9.46143 75.1126 9.30273 74.595 9.30273C74.0823 9.30273 73.6551 9.46387 73.3133 9.78613C72.9715 10.1084 72.7518 10.5918 72.6541 11.2363L71.3357 11.002C71.4969 10.1182 71.8631 9.43457 72.4344 8.95117C73.0057 8.46289 73.7161 8.21875 74.5657 8.21875C75.1517 8.21875 75.6912 8.3457 76.1844 8.59961C76.6775 8.84863 77.0535 9.19043 77.3123 9.625C77.576 10.0596 77.7078 10.521 77.7078 11.0093C77.7078 11.4731 77.5833 11.8955 77.3343 12.2764C77.0853 12.6572 76.7166 12.96 76.2283 13.1846C76.8631 13.3311 77.3563 13.6362 77.7078 14.1001C78.0594 14.5591 78.2352 15.1353 78.2352 15.8286C78.2352 16.7661 77.8934 17.562 77.2098 18.2163C76.5262 18.8657 75.6619 19.1904 74.617 19.1904C73.6746 19.1904 72.8909 18.9097 72.2659 18.3481C71.6458 17.7866 71.2918 17.0591 71.2039 16.1655ZM79.4462 16.1875L80.8305 16.0703C80.933 16.7441 81.1698 17.252 81.5409 17.5938C81.9169 17.9307 82.3686 18.0991 82.8959 18.0991C83.5307 18.0991 84.0678 17.8599 84.5072 17.3813C84.9467 16.9028 85.1664 16.2681 85.1664 15.4771C85.1664 14.7251 84.954 14.1318 84.5292 13.6973C84.1093 13.2627 83.5575 13.0454 82.8739 13.0454C82.4491 13.0454 82.0658 13.1431 81.724 13.3384C81.3822 13.5288 81.1137 13.7778 80.9184 14.0854L79.6806 13.9243L80.7206 8.40918H86.06V9.66895H81.7753L81.1967 12.5547C81.8412 12.1055 82.5175 11.8809 83.2255 11.8809C84.163 11.8809 84.954 12.2056 85.5985 12.855C86.2431 13.5044 86.5653 14.3394 86.5653 15.3599C86.5653 16.3315 86.2821 17.1714 85.7157 17.8794C85.0272 18.7485 84.0873 19.1831 82.8959 19.1831C81.9193 19.1831 81.121 18.9097 80.5009 18.3628C79.8856 17.8159 79.5341 17.0908 79.4462 16.1875ZM87.6958 13.7046C87.6958 12.4351 87.8252 11.4146 88.084 10.6431C88.3477 9.8667 88.7358 9.26855 89.2485 8.84863C89.7661 8.42871 90.4155 8.21875 91.1968 8.21875C91.7729 8.21875 92.2783 8.33594 92.7129 8.57031C93.1475 8.7998 93.5063 9.13428 93.7896 9.57373C94.0728 10.0083 94.2949 10.5405 94.4561 11.1704C94.6172 11.7954 94.6978 12.6401 94.6978 13.7046C94.6978 14.9644 94.5684 15.9824 94.3096 16.7588C94.0508 17.5303 93.6626 18.1284 93.145 18.5532C92.6323 18.9731 91.9829 19.1831 91.1968 19.1831C90.1616 19.1831 89.3486 18.812 88.7578 18.0698C88.0498 17.1763 87.6958 15.7212 87.6958 13.7046ZM89.0508 13.7046C89.0508 15.4673 89.2559 16.6416 89.666 17.2275C90.0811 17.8086 90.5913 18.0991 91.1968 18.0991C91.8022 18.0991 92.3101 17.8062 92.7202 17.2202C93.1353 16.6343 93.3428 15.4624 93.3428 13.7046C93.3428 11.937 93.1353 10.7627 92.7202 10.1816C92.3101 9.60059 91.7974 9.31006 91.1821 9.31006C90.5767 9.31006 90.0933 9.56641 89.7319 10.0791C89.2778 10.7334 89.0508 11.9419 89.0508 13.7046Z" fill="#161C2D"/>
<path d="M50 15.1182H95.4155V15.8652H50V15.1182Z" fill="#161C2D"/>
</g>
</g>
<defs>
<clipPath id="clip0_1_210">
<rect width="94" height="29" fill="white"/>
</clipPath>
</defs>
</svg>
